<svg xmlns="http://www.w3.org/2000/svg" viewBox="0 0 64 64" width="64" height="64">
<defs>
<linearGradient id="hull" x1="0" y1="0" x2="0" y2="1">
<stop offset="0" stop-color="#d9dde3"/>
<stop offset="0.5" stop-color="#9aa1ab"/>
<stop offset="1" stop-color="#5c636e"/>
</linearGradient>
<linearGradient id="rad" x1="0" y1="0" x2="1" y2="0">
<stop offset="0" stop-color="#f2f4f7"/>
<stop offset="1" stop-color="#c4cad3"/>
</linearGradient>
<linearGradient id="foil" x1="0" y1="0" x2="1" y2="1">
<stop offset="0" stop-color="#e8c66a"/>
<stop offset="1" stop-color="#8f6b22"/>
</linearGradient>
</defs>
<path d="M30 30 L22 10 L26 10 L34 30 Z M30 34 L22 54 L26 54 L34 34 Z" fill="url(#rad)" stroke="#20252d" stroke-width="0.8"/>
<path d="M24 13 L32 30 M24 51 L32 34" stroke="#aab2bd" stroke-width="0.6"/>
<path d="M12 29.0 L5 27.5 L5 36.5 L12 35.0 Z" fill="#3a3f47" stroke="#20252d" stroke-width="0.8"/>
<rect x="12" y="28" width="38" height="8" rx="2" fill="url(#hull)" stroke="#20252d" stroke-width="0.8"/>
<path d="M50 28 Q58 32 50 36 Z" fill="url(#hull)" stroke="#20252d" stroke-width="0.8"/>
<path d="M20 28 V36 M34 28 V36 M42 28 V36" stroke="#5c636e" stroke-width="0.6"/>
<rect x="36" y="28" width="5" height="8" fill="#4da6ff" stroke="#20252d" stroke-width="0.8"/>
<path d="M22 10 L26 10 L27.2 13 L23.2 13 Z M22 54 L26 54 L27.2 51 L23.2 51 Z" fill="#4da6ff" stroke="#20252d" stroke-width="0.8"/>
</svg>
